<svg width="14" height="12" viewBox="0 0 14 12" fill="none" xmlns="http://www.w3.org/2000/svg">
<path fill-rule="evenodd" clip-rule="evenodd" d="M9.7202 4.7383C8.5648 3.5829 7.57672 2.1417 7.21821 1.06617L9.11558 0.433716C9.3404 1.10819 10.1023 2.29199 11.1344 3.32409C11.6386 3.8283 12.1728 4.26071 12.6895 4.56148C13.2145 4.86708 13.6577 4.99988 14 4.99994H14.0002V6.99994C13.6579 6.99994 13.2146 7.13274 12.6895 7.43841C12.1728 7.73918 11.6386 8.17159 11.1344 8.6758C10.1023 9.7079 9.3404 10.8917 9.11558 11.5662L7.21821 10.9337C7.57672 9.85819 8.5648 8.41699 9.7202 7.26159C9.80838 7.17342 9.89832 7.08609 9.9899 6.99994H0V4.99994H9.9899C9.89832 4.9138 9.80838 4.82647 9.7202 4.7383Z" fill="black"/>
</svg>
