<svg width="24" height="24" viewBox="0 0 24 24" fill="none" xmlns="http://www.w3.org/2000/svg">
<path fill-rule="evenodd" clip-rule="evenodd" d="M12.9666 4.26693C12.9666 3.73307 12.5339 3.3003 12 3.3003C11.4661 3.3003 11.0334 3.73307 11.0334 4.26693L11.0334 11.0334L4.26693 11.0334C3.73307 11.0334 3.30029 11.4662 3.30029 12C3.30029 12.5339 3.73307 12.9667 4.26693 12.9667L11.0334 12.9667V19.7331C11.0334 20.2669 11.4661 20.6997 12 20.6997C12.5339 20.6997 12.9666 20.2669 12.9666 19.7331V12.9667L19.7331 12.9667C20.2669 12.9667 20.6997 12.5339 20.6997 12C20.6997 11.4662 20.2669 11.0334 19.7331 11.0334L12.9666 11.0334L12.9666 4.26693Z" fill="#1E212A"/>
</svg>
